<svg width="175" height="24" viewBox="0 0 175 24" fill="none" xmlns="http://www.w3.org/2000/svg">
<path d="M20 16L21.28 18.55C21.3571 18.703 21.3936 18.8732 21.386 19.0444C21.3784 19.2155 21.327 19.3818 21.2366 19.5274C21.1463 19.6729 21.0201 19.7928 20.8701 19.8756C20.7201 19.9584 20.5513 20.0012 20.38 20H3.62002C3.44871 20.0012 3.27997 19.9584 3.12997 19.8756C2.97997 19.7928 2.85374 19.6729 2.7634 19.5274C2.67305 19.3818 2.62162 19.2155 2.61402 19.0444C2.60643 18.8732 2.64293 18.703 2.72002 18.55L4.00002 16M20 16V7C20 6.46957 19.7893 5.96086 19.4142 5.58579C19.0392 5.21071 18.5305 5 18 5H6.00002C5.46959 5 4.96088 5.21071 4.58581 5.58579C4.21073 5.96086 4.00002 6.46957 4.00002 7V16H20ZM20 16H4.00002H20Z" stroke="#172B4D" stroke-width="2" stroke-linecap="round" stroke-linejoin="round"/>
<path d="M33.5881 19.5L29.3551 4.95455H33.2401L35.4347 14.4858H35.5554L38.0625 4.95455H41.2301L43.7372 14.5071H43.858L46.0597 4.95455H49.9375L45.7116 19.5H42.3239L39.7031 10.679H39.5895L36.9688 19.5H33.5881ZM55.2713 19.706C54.1255 19.706 53.1406 19.4716 52.3168 19.0028C51.4976 18.5294 50.8655 17.8712 50.4205 17.0284C49.9801 16.1809 49.7599 15.1984 49.7599 14.081C49.7599 12.9588 49.9801 11.9763 50.4205 11.1335C50.8655 10.286 51.4976 9.62784 52.3168 9.15909C53.1406 8.68561 54.1255 8.44886 55.2713 8.44886C56.4171 8.44886 57.3996 8.68561 58.2188 9.15909C59.0426 9.62784 59.6747 10.286 60.1151 11.1335C60.5601 11.9763 60.7827 12.9588 60.7827 14.081C60.7827 15.1984 60.5601 16.1809 60.1151 17.0284C59.6747 17.8712 59.0426 18.5294 58.2188 19.0028C57.3996 19.4716 56.4171 19.706 55.2713 19.706ZM55.2926 17.0852C55.7093 17.0852 56.062 16.9574 56.3509 16.7017C56.6397 16.446 56.8598 16.0909 57.0114 15.6364C57.1676 15.1818 57.2457 14.6562 57.2457 14.0597C57.2457 13.4536 57.1676 12.9233 57.0114 12.4688C56.8598 12.0142 56.6397 11.6591 56.3509 11.4034C56.062 11.1477 55.7093 11.0199 55.2926 11.0199C54.8617 11.0199 54.4972 11.1477 54.1989 11.4034C53.9053 11.6591 53.6804 12.0142 53.5241 12.4688C53.3726 12.9233 53.2969 13.4536 53.2969 14.0597C53.2969 14.6562 53.3726 15.1818 53.5241 15.6364C53.6804 16.0909 53.9053 16.446 54.1989 16.7017C54.4972 16.9574 54.8617 17.0852 55.2926 17.0852ZM62.5618 19.5V8.59091H65.9354V10.5795H66.049C66.2479 9.85985 66.5722 9.32481 67.022 8.97443C67.4718 8.61932 67.995 8.44176 68.5916 8.44176C68.7526 8.44176 68.9183 8.4536 69.0888 8.47727C69.2592 8.49621 69.4179 8.52699 69.5646 8.5696V11.5881C69.3989 11.5312 69.1811 11.4863 68.9112 11.4531C68.6461 11.42 68.4093 11.4034 68.201 11.4034C67.7891 11.4034 67.4174 11.4957 67.0859 11.6804C66.7592 11.8603 66.5012 12.1136 66.3118 12.4403C66.1271 12.7623 66.0348 13.1411 66.0348 13.5767V19.5H62.5618ZM74.1119 16.6378L74.1261 12.4972H74.609L77.6772 8.59091H81.6119L77.0522 14.1875H76.136L74.1119 16.6378ZM70.9798 19.5V4.95455H74.4528V19.5H70.9798ZM77.7553 19.5L74.9002 14.9688L77.1871 12.5043L81.7681 19.5H77.7553ZM92.4002 9.70597C92.3197 9.40767 92.2013 9.14489 92.0451 8.91761C91.8888 8.68561 91.6971 8.48911 91.4698 8.32812C91.2425 8.16714 90.9821 8.0464 90.6886 7.96591C90.395 7.88068 90.073 7.83807 89.7227 7.83807C89.0172 7.83807 88.4064 8.00852 87.8903 8.34943C87.3789 8.69034 86.9835 9.1875 86.7042 9.84091C86.4248 10.4896 86.2852 11.2779 86.2852 12.206C86.2852 13.1387 86.4201 13.9342 86.69 14.5923C86.9599 15.2505 87.3505 15.7524 87.8619 16.098C88.3732 16.4437 88.9935 16.6165 89.7227 16.6165C90.3666 16.6165 90.9111 16.5123 91.3562 16.304C91.806 16.0909 92.1469 15.7902 92.3789 15.402C92.6109 15.0137 92.7269 14.5568 92.7269 14.0312L93.3803 14.1094H89.8434V11.5455H96.1147V13.4702C96.1147 14.7723 95.8377 15.8873 95.2837 16.8153C94.7345 17.7434 93.9769 18.456 93.011 18.9531C92.0498 19.4503 90.9442 19.6989 89.6942 19.6989C88.3069 19.6989 87.0877 19.3982 86.0366 18.7969C84.9854 18.1955 84.1663 17.3385 83.5792 16.2259C82.9921 15.1084 82.6985 13.7827 82.6985 12.2486C82.6985 11.0554 82.8761 9.99716 83.2312 9.07386C83.5863 8.14583 84.0811 7.35985 84.7156 6.71591C85.3548 6.07197 86.0934 5.58428 86.9315 5.25284C87.7743 4.9214 88.681 4.75568 89.6516 4.75568C90.4944 4.75568 91.2781 4.87642 92.0025 5.1179C92.7317 5.35938 93.3756 5.70028 93.9343 6.14062C94.4978 6.58097 94.9547 7.10417 95.305 7.71023C95.6554 8.31629 95.8732 8.98153 95.9585 9.70597H92.4002ZM103.279 19.706C102.133 19.706 101.148 19.4716 100.325 19.0028C99.5054 18.5294 98.8733 17.8712 98.4283 17.0284C97.9879 16.1809 97.7678 15.1984 97.7678 14.081C97.7678 12.9588 97.9879 11.9763 98.4283 11.1335C98.8733 10.286 99.5054 9.62784 100.325 9.15909C101.148 8.68561 102.133 8.44886 103.279 8.44886C104.425 8.44886 105.407 8.68561 106.227 9.15909C107.05 9.62784 107.683 10.286 108.123 11.1335C108.568 11.9763 108.79 12.9588 108.79 14.081C108.79 15.1984 108.568 16.1809 108.123 17.0284C107.683 17.8712 107.05 18.5294 106.227 19.0028C105.407 19.4716 104.425 19.706 103.279 19.706ZM103.3 17.0852C103.717 17.0852 104.07 16.9574 104.359 16.7017C104.647 16.446 104.868 16.0909 105.019 15.6364C105.175 15.1818 105.254 14.6562 105.254 14.0597C105.254 13.4536 105.175 12.9233 105.019 12.4688C104.868 12.0142 104.647 11.6591 104.359 11.4034C104.07 11.1477 103.717 11.0199 103.3 11.0199C102.87 11.0199 102.505 11.1477 102.207 11.4034C101.913 11.6591 101.688 12.0142 101.532 12.4688C101.38 12.9233 101.305 13.4536 101.305 14.0597C101.305 14.6562 101.38 15.1818 101.532 15.6364C101.688 16.0909 101.913 16.446 102.207 16.7017C102.505 16.9574 102.87 17.0852 103.3 17.0852ZM113.041 19.5L108.808 4.95455H112.693L114.888 14.4858H115.009L117.516 4.95455H120.683L123.19 14.5071H123.311L125.513 4.95455H129.391L125.165 19.5H121.777L119.156 10.679H119.043L116.422 19.5H113.041ZM134.316 13.2784V19.5H130.843V4.95455H134.202V10.5938H134.323C134.569 9.9214 134.972 9.39583 135.531 9.01705C136.094 8.63826 136.783 8.44886 137.597 8.44886C138.364 8.44886 139.032 8.61932 139.6 8.96023C140.168 9.2964 140.609 9.77225 140.921 10.3878C141.238 11.0033 141.395 11.723 141.39 12.5469V19.5H137.917V13.2287C137.922 12.6226 137.77 12.1491 137.462 11.8082C137.155 11.4673 136.721 11.2969 136.163 11.2969C135.798 11.2969 135.476 11.3774 135.197 11.5384C134.922 11.6946 134.707 11.9195 134.55 12.2131C134.399 12.5066 134.321 12.8617 134.316 13.2784ZM148.657 19.706C147.516 19.706 146.531 19.4811 145.703 19.0312C144.879 18.5767 144.244 17.9304 143.799 17.0923C143.359 16.2495 143.139 15.2481 143.139 14.0881C143.139 12.9612 143.361 11.9763 143.806 11.1335C144.252 10.286 144.879 9.62784 145.689 9.15909C146.498 8.68561 147.452 8.44886 148.551 8.44886C149.327 8.44886 150.038 8.5696 150.681 8.81108C151.325 9.05256 151.882 9.41004 152.35 9.88352C152.819 10.357 153.184 10.9418 153.444 11.6378C153.705 12.3291 153.835 13.1222 153.835 14.017V14.8835H144.353V12.8665H150.603C150.599 12.4972 150.511 12.1681 150.341 11.8793C150.17 11.5904 149.936 11.3655 149.637 11.2045C149.344 11.0388 149.005 10.956 148.622 10.956C148.234 10.956 147.886 11.0436 147.578 11.2188C147.27 11.3892 147.026 11.6236 146.846 11.9219C146.666 12.2154 146.572 12.5492 146.562 12.9233V14.9759C146.562 15.4209 146.65 15.8116 146.825 16.1477C147 16.4792 147.249 16.7372 147.571 16.9219C147.893 17.1065 148.276 17.1989 148.721 17.1989C149.029 17.1989 149.308 17.1562 149.559 17.071C149.81 16.9858 150.026 16.8603 150.206 16.6946C150.386 16.5289 150.52 16.3253 150.61 16.0838L153.799 16.1761C153.667 16.8911 153.376 17.5137 152.926 18.044C152.481 18.5696 151.896 18.9792 151.172 19.2727C150.447 19.5616 149.609 19.706 148.657 19.706ZM155.609 19.5V8.59091H158.982V10.5795H159.096C159.295 9.85985 159.619 9.32481 160.069 8.97443C160.519 8.61932 161.042 8.44176 161.638 8.44176C161.799 8.44176 161.965 8.4536 162.136 8.47727C162.306 8.49621 162.465 8.52699 162.612 8.5696V11.5881C162.446 11.5312 162.228 11.4863 161.958 11.4531C161.693 11.42 161.456 11.4034 161.248 11.4034C160.836 11.4034 160.464 11.4957 160.133 11.6804C159.806 11.8603 159.548 12.1136 159.359 12.4403C159.174 12.7623 159.082 13.1411 159.082 13.5767V19.5H155.609ZM168.56 19.706C167.419 19.706 166.434 19.4811 165.605 19.0312C164.781 18.5767 164.147 17.9304 163.702 17.0923C163.261 16.2495 163.041 15.2481 163.041 14.0881C163.041 12.9612 163.264 11.9763 163.709 11.1335C164.154 10.286 164.781 9.62784 165.591 9.15909C166.401 8.68561 167.355 8.44886 168.453 8.44886C169.23 8.44886 169.94 8.5696 170.584 8.81108C171.228 9.05256 171.784 9.41004 172.253 9.88352C172.722 10.357 173.086 10.9418 173.347 11.6378C173.607 12.3291 173.737 13.1222 173.737 14.017V14.8835H164.256V12.8665H170.506C170.501 12.4972 170.413 12.1681 170.243 11.8793C170.072 11.5904 169.838 11.3655 169.54 11.2045C169.246 11.0388 168.908 10.956 168.524 10.956C168.136 10.956 167.788 11.0436 167.48 11.2188C167.172 11.3892 166.929 11.6236 166.749 11.9219C166.569 12.2154 166.474 12.5492 166.464 12.9233V14.9759C166.464 15.4209 166.552 15.8116 166.727 16.1477C166.902 16.4792 167.151 16.7372 167.473 16.9219C167.795 17.1065 168.179 17.1989 168.624 17.1989C168.931 17.1989 169.211 17.1562 169.462 17.071C169.713 16.9858 169.928 16.8603 170.108 16.6946C170.288 16.5289 170.423 16.3253 170.513 16.0838L173.702 16.1761C173.569 16.8911 173.278 17.5137 172.828 18.044C172.383 18.5696 171.798 18.9792 171.074 19.2727C170.349 19.5616 169.511 19.706 168.56 19.706Z" fill="#172B4D"/>
</svg>
